<svg width="896" height="28" viewBox="0 0 896 28" fill="none" xmlns="http://www.w3.org/2000/svg">
    <path
        d="M845.629 18.832C846.983 17.744 848.045 16.8533 848.812 16.16C849.581 15.456 850.226 14.7253 850.749 13.968C851.282 13.2 851.549 12.448 851.549 11.712C851.549 11.0187 851.378 10.4747 851.037 10.08C850.706 9.67467 850.167 9.472 849.421 9.472C848.695 9.472 848.13 9.70133 847.725 10.16C847.33 10.608 847.117 11.2107 847.085 11.968H845.677C845.719 10.7733 846.082 9.85067 846.765 9.2C847.447 8.54933 848.327 8.224 849.405 8.224C850.503 8.224 851.373 8.528 852.013 9.136C852.663 9.744 852.989 10.5813 852.989 11.648C852.989 12.5333 852.722 13.3973 852.189 14.24C851.666 15.072 851.069 15.808 850.397 16.448C849.725 17.0773 848.866 17.8133 847.821 18.656H853.325V19.872H845.629V18.832ZM855.008 14.096C855.008 12.2613 855.306 10.832 855.904 9.808C856.501 8.77333 857.546 8.256 859.04 8.256C860.522 8.256 861.562 8.77333 862.16 9.808C862.757 10.832 863.056 12.2613 863.056 14.096C863.056 15.9627 862.757 17.4133 862.16 18.448C861.562 19.4827 860.522 20 859.04 20C857.546 20 856.501 19.4827 855.904 18.448C855.306 17.4133 855.008 15.9627 855.008 14.096ZM861.616 14.096C861.616 13.168 861.552 12.384 861.424 11.744C861.306 11.0933 861.056 10.5707 860.672 10.176C860.298 9.78133 859.754 9.584 859.04 9.584C858.314 9.584 857.76 9.78133 857.376 10.176C857.002 10.5707 856.752 11.0933 856.624 11.744C856.506 12.384 856.448 13.168 856.448 14.096C856.448 15.056 856.506 15.8613 856.624 16.512C856.752 17.1627 857.002 17.6853 857.376 18.08C857.76 18.4747 858.314 18.672 859.04 18.672C859.754 18.672 860.298 18.4747 860.672 18.08C861.056 17.6853 861.306 17.1627 861.424 16.512C861.552 15.8613 861.616 15.056 861.616 14.096ZM864.879 18.832C866.233 17.744 867.295 16.8533 868.062 16.16C868.831 15.456 869.476 14.7253 869.999 13.968C870.532 13.2 870.799 12.448 870.799 11.712C870.799 11.0187 870.628 10.4747 870.287 10.08C869.956 9.67467 869.417 9.472 868.671 9.472C867.945 9.472 867.38 9.70133 866.975 10.16C866.58 10.608 866.367 11.2107 866.335 11.968H864.927C864.969 10.7733 865.332 9.85067 866.015 9.2C866.697 8.54933 867.577 8.224 868.655 8.224C869.753 8.224 870.623 8.528 871.263 9.136C871.913 9.744 872.239 10.5813 872.239 11.648C872.239 12.5333 871.972 13.3973 871.439 14.24C870.916 15.072 870.319 15.808 869.647 16.448C868.975 17.0773 868.116 17.8133 867.071 18.656H872.575V19.872H864.879V18.832ZM873.906 17.424V16.32L879.522 8.544H881.266V16.16H882.866V17.424H881.266V20H879.826V17.424H873.906ZM879.89 10.064L875.586 16.16H879.89V10.064ZM889.68 8.736C890.757 8.736 891.717 8.98133 892.56 9.472C893.403 9.952 894.053 10.624 894.512 11.488C894.981 12.3413 895.216 13.3173 895.216 14.416C895.216 15.5147 894.981 16.496 894.512 17.36C894.053 18.2133 893.403 18.8853 892.56 19.376C891.717 19.856 890.757 20.096 889.68 20.096C888.592 20.096 887.627 19.856 886.784 19.376C885.941 18.8853 885.285 18.2133 884.816 17.36C884.347 16.496 884.112 15.5147 884.112 14.416C884.112 13.3173 884.347 12.3413 884.816 11.488C885.285 10.624 885.941 9.952 886.784 9.472C887.627 8.98133 888.592 8.736 889.68 8.736ZM889.68 9.376C888.688 9.376 887.824 9.58933 887.088 10.016C886.352 10.432 885.787 11.0187 885.392 11.776C884.997 12.5333 884.8 13.4133 884.8 14.416C884.8 15.408 884.997 16.288 885.392 17.056C885.787 17.8133 886.352 18.4053 887.088 18.832C887.824 19.2587 888.688 19.472 889.68 19.472C890.661 19.472 891.515 19.2587 892.24 18.832C892.976 18.4053 893.541 17.8133 893.936 17.056C894.331 16.288 894.528 15.408 894.528 14.416C894.528 13.4133 894.331 12.5333 893.936 11.776C893.541 11.0187 892.976 10.432 892.24 10.016C891.515 9.58933 890.661 9.376 889.68 9.376ZM889.648 10.704C889.008 10.704 888.421 10.8533 887.888 11.152C887.365 11.4507 886.949 11.8827 886.64 12.448C886.331 13.0027 886.176 13.6533 886.176 14.4C886.176 15.1467 886.331 15.8027 886.64 16.368C886.949 16.9227 887.365 17.3547 887.888 17.664C888.421 17.9627 889.008 18.112 889.648 18.112C890.448 18.112 891.141 17.8987 891.728 17.472C892.315 17.0347 892.715 16.4533 892.928 15.728H891.584C891.264 16.6133 890.619 17.056 889.648 17.056C889.008 17.056 888.485 16.8267 888.08 16.368C887.675 15.9093 887.472 15.2587 887.472 14.416C887.472 13.5627 887.675 12.9067 888.08 12.448C888.485 11.9893 889.008 11.76 889.648 11.76C890.117 11.76 890.523 11.8773 890.864 12.112C891.205 12.336 891.445 12.6613 891.584 13.088H892.928C892.725 12.3307 892.331 11.744 891.744 11.328C891.157 10.912 890.459 10.704 889.648 10.704Z"
        fill="#E5E4E0" />
</svg>