<svg width="39" height="39" viewBox="0 0 39 39" fill="none" xmlns="http://www.w3.org/2000/svg">
    <path
        d="M19.5038 3.51221C24.715 3.51221 25.3321 3.53507 27.3815 3.62649C29.2862 3.71029 30.3147 4.03028 31.0004 4.29693C31.907 4.64739 32.5622 5.07404 33.2403 5.7521C33.926 6.43778 34.345 7.08537 34.6955 7.99199C34.9621 8.67767 35.2821 9.71381 35.3659 11.6109C35.4573 13.6679 35.4802 14.285 35.4802 19.4886C35.4802 24.6997 35.4573 25.3169 35.3659 27.3663C35.2821 29.271 34.9621 30.2995 34.6955 30.9852C34.345 31.8918 33.9183 32.547 33.2403 33.225C32.5546 33.9107 31.907 34.3298 31.0004 34.6802C30.3147 34.9469 29.2786 35.2668 27.3815 35.3507C25.3245 35.4421 24.7074 35.4649 19.5038 35.4649C14.2926 35.4649 13.6755 35.4421 11.6261 35.3507C9.72143 35.2668 8.69291 34.9469 8.00723 34.6802C7.10061 34.3298 6.4454 33.9031 5.76734 33.225C5.08166 32.5394 4.66263 31.8918 4.31217 30.9852C4.04552 30.2995 3.72553 29.2633 3.64173 27.3663C3.5503 25.3092 3.52745 24.6921 3.52745 19.4886C3.52745 14.2774 3.5503 13.6603 3.64173 11.6109C3.72553 9.70619 4.04552 8.67767 4.31217 7.99199C4.66263 7.08537 5.08928 6.43016 5.76734 5.7521C6.45302 5.06642 7.10061 4.64739 8.00723 4.29693C8.69291 4.03028 9.72905 3.71029 11.6261 3.62649C13.6755 3.53507 14.2926 3.51221 19.5038 3.51221ZM19.5038 0C14.2088 0 13.546 0.022856 11.4661 0.11428C9.39383 0.205704 7.96914 0.540926 6.73491 1.0209C5.44735 1.52374 4.35788 2.18656 3.27603 3.27603C2.18656 4.35788 1.52374 5.44735 1.0209 6.72729C0.540926 7.96914 0.205704 9.38621 0.11428 11.4585C0.022856 13.546 0 14.2088 0 19.5038C0 24.7988 0.022856 25.4616 0.11428 27.5415C0.205704 29.6138 0.540926 31.0385 1.0209 32.2727C1.52374 33.5603 2.18656 34.6497 3.27603 35.7316C4.35788 36.8134 5.44735 37.4839 6.72729 37.9791C7.96914 38.4591 9.38621 38.7943 11.4585 38.8857C13.5384 38.9771 14.2012 39 19.4962 39C24.7912 39 25.454 38.9771 27.5339 38.8857C29.6062 38.7943 31.0309 38.4591 32.2651 37.9791C33.545 37.4839 34.6345 36.8134 35.7164 35.7316C36.7982 34.6497 37.4687 33.5603 37.9639 32.2803C38.4438 31.0385 38.7791 29.6214 38.8705 27.5491C38.9619 25.4692 38.9848 24.8064 38.9848 19.5114C38.9848 14.2164 38.9619 13.5536 38.8705 11.4737C38.7791 9.40145 38.4438 7.97675 37.9639 6.74253C37.4839 5.44735 36.8211 4.35788 35.7316 3.27603C34.6497 2.19418 33.5603 1.52374 32.2803 1.02852C31.0385 0.548545 29.6214 0.213323 27.5491 0.121899C25.4616 0.022856 24.7988 0 19.5038 0Z"
        fill="white" />
    <path
        d="M19.5038 9.48535C13.9726 9.48535 9.48524 13.9728 9.48524 19.5039C9.48524 25.0351 13.9726 29.5225 19.5038 29.5225C25.035 29.5225 29.5224 25.0351 29.5224 19.5039C29.5224 13.9728 25.035 9.48535 19.5038 9.48535ZM19.5038 26.0026C15.9154 26.0026 13.0051 23.0923 13.0051 19.5039C13.0051 15.9155 15.9154 13.0052 19.5038 13.0052C23.0922 13.0052 26.0025 15.9155 26.0025 19.5039C26.0025 23.0923 23.0922 26.0026 19.5038 26.0026Z"
        fill="white" />
    <path
        d="M32.2575 9.08894C32.2575 10.3841 31.2061 11.4279 29.9185 11.4279C28.6234 11.4279 27.5796 10.3765 27.5796 9.08894C27.5796 7.79376 28.631 6.75 29.9185 6.75C31.2061 6.75 32.2575 7.80138 32.2575 9.08894Z"
        fill="white" />
</svg>