<svg width="137" height="28" viewBox="0 0 137 28" fill="none" xmlns="http://www.w3.org/2000/svg">
    <path
        d="M12.544 8.928V20H11.088V11.744L7.408 20H6.384L2.688 11.728V20H1.232V8.928H2.8L6.896 18.08L10.992 8.928H12.544ZM16.4693 10.032V13.76H20.5333V14.96H16.4693V18.8H21.0133V20H15.0133V8.832H21.0133V10.032H16.4693ZM26.938 14.416C26.938 13.328 27.1833 12.352 27.674 11.488C28.1647 10.6133 28.8313 9.93067 29.674 9.44C30.5273 8.94933 31.4713 8.704 32.506 8.704C33.722 8.704 34.7833 8.99733 35.69 9.584C36.5967 10.1707 37.258 11.0027 37.674 12.08H35.93C35.6207 11.408 35.1727 10.8907 34.586 10.528C34.01 10.1653 33.3167 9.984 32.506 9.984C31.7273 9.984 31.0287 10.1653 30.41 10.528C29.7913 10.8907 29.306 11.408 28.954 12.08C28.602 12.7413 28.426 13.52 28.426 14.416C28.426 15.3013 28.602 16.08 28.954 16.752C29.306 17.4133 29.7913 17.9253 30.41 18.288C31.0287 18.6507 31.7273 18.832 32.506 18.832C33.3167 18.832 34.01 18.656 34.586 18.304C35.1727 17.9413 35.6207 17.424 35.93 16.752H37.674C37.258 17.8187 36.5967 18.6453 35.69 19.232C34.7833 19.808 33.722 20.096 32.506 20.096C31.4713 20.096 30.5273 19.856 29.674 19.376C28.8313 18.8853 28.1647 18.208 27.674 17.344C27.1833 16.48 26.938 15.504 26.938 14.416ZM44.8974 20.112C43.8627 20.112 42.9187 19.872 42.0654 19.392C41.212 18.9013 40.5347 18.224 40.0334 17.36C39.5427 16.4853 39.2974 15.504 39.2974 14.416C39.2974 13.328 39.5427 12.352 40.0334 11.488C40.5347 10.6133 41.212 9.936 42.0654 9.456C42.9187 8.96533 43.8627 8.72 44.8974 8.72C45.9427 8.72 46.892 8.96533 47.7454 9.456C48.5987 9.936 49.2707 10.608 49.7614 11.472C50.252 12.336 50.4974 13.3173 50.4974 14.416C50.4974 15.5147 50.252 16.496 49.7614 17.36C49.2707 18.224 48.5987 18.9013 47.7454 19.392C46.892 19.872 45.9427 20.112 44.8974 20.112ZM44.8974 18.848C45.676 18.848 46.3747 18.6667 46.9934 18.304C47.6227 17.9413 48.1134 17.424 48.4654 16.752C48.828 16.08 49.0094 15.3013 49.0094 14.416C49.0094 13.52 48.828 12.7413 48.4654 12.08C48.1134 11.408 47.628 10.8907 47.0094 10.528C46.3907 10.1653 45.6867 9.984 44.8974 9.984C44.108 9.984 43.404 10.1653 42.7854 10.528C42.1667 10.8907 41.676 11.408 41.3134 12.08C40.9614 12.7413 40.7854 13.52 40.7854 14.416C40.7854 15.3013 40.9614 16.08 41.3134 16.752C41.676 17.424 42.1667 17.9413 42.7854 18.304C43.4147 18.6667 44.1187 18.848 44.8974 18.848ZM61.1875 20H59.7315L53.8755 11.12V20H52.4195V8.832H53.8755L59.7315 17.696V8.832H61.1875V20ZM70.5335 8.848V10.032H67.4935V20H66.0375V10.032H62.9815V8.848H70.5335ZM78.9178 17.52H74.0538L73.1578 20H71.6217L75.6538 8.912H77.3338L81.3498 20H79.8138L78.9178 17.52ZM78.5018 16.336L76.4858 10.704L74.4698 16.336H78.5018ZM82.563 14.416C82.563 13.328 82.8083 12.352 83.299 11.488C83.7897 10.6133 84.4563 9.93067 85.299 9.44C86.1523 8.94933 87.0963 8.704 88.131 8.704C89.347 8.704 90.4083 8.99733 91.315 9.584C92.2217 10.1707 92.883 11.0027 93.299 12.08H91.555C91.2457 11.408 90.7977 10.8907 90.211 10.528C89.635 10.1653 88.9417 9.984 88.131 9.984C87.3523 9.984 86.6537 10.1653 86.035 10.528C85.4163 10.8907 84.931 11.408 84.579 12.08C84.227 12.7413 84.051 13.52 84.051 14.416C84.051 15.3013 84.227 16.08 84.579 16.752C84.931 17.4133 85.4163 17.9253 86.035 18.288C86.6537 18.6507 87.3523 18.832 88.131 18.832C88.9417 18.832 89.635 18.656 90.211 18.304C90.7977 17.9413 91.2457 17.424 91.555 16.752H93.299C92.883 17.8187 92.2217 18.6453 91.315 19.232C90.4083 19.808 89.347 20.096 88.131 20.096C87.0963 20.096 86.1523 19.856 85.299 19.376C84.4563 18.8853 83.7897 18.208 83.299 17.344C82.8083 16.48 82.563 15.504 82.563 14.416ZM102.33 8.848V10.032H99.2904V20H97.8344V10.032H94.7784V8.848H102.33ZM105.579 10.032V13.76H109.643V14.96H105.579V18.8H110.123V20H104.123V8.832H110.123V10.032H105.579ZM118.198 20L115.542 15.44H113.782V20H112.326V8.848H115.926C116.768 8.848 117.478 8.992 118.054 9.28C118.64 9.568 119.078 9.95733 119.366 10.448C119.654 10.9387 119.798 11.4987 119.798 12.128C119.798 12.896 119.574 13.5733 119.126 14.16C118.688 14.7467 118.027 15.136 117.142 15.328L119.942 20H118.198ZM113.782 14.272H115.926C116.715 14.272 117.307 14.08 117.702 13.696C118.096 13.3013 118.294 12.7787 118.294 12.128C118.294 11.4667 118.096 10.9547 117.702 10.592C117.318 10.2293 116.726 10.048 115.926 10.048H113.782V14.272Z"
        fill="#E5E4E0" />
    <g clip-path="url(#clip0_7367_225)">
        <path d="M125 18L133 10M133 10H126.5M133 10V16.5" stroke="#E5E4E0" stroke-width="1.2" stroke-linecap="round"
            stroke-linejoin="round" />
    </g>
    <defs>
        <clipPath id="clip0_7367_225">
            <rect width="16" height="16" fill="white" transform="translate(121 6)" />
        </clipPath>
    </defs>
</svg>